<svg width="154" height="51" viewBox="0 0 154 51" fill="none" xmlns="http://www.w3.org/2000/svg">
<path d="M82.408 13.2428C81.6994 12.4982 81.2805 11.4623 81.2805 10.3615V8.16021C81.2805 7.02723 81.7315 5.9913 82.4725 5.2142C82.6014 5.08479 82.6979 4.92281 82.7947 4.7934C83.0525 4.30779 83.1812 3.75746 83.1168 3.14237C82.9879 1.68559 81.7637 0.552544 80.3462 0.487797C78.5743 0.423049 77.3503 1.97696 77.3179 3.40137C77.3179 4.24307 77.7046 4.89046 78.0267 5.2789C78.7032 6.02365 79.122 7.02723 79.122 8.12785V10.3291C79.122 11.4623 78.7032 12.4659 77.9945 13.2104C77.7367 13.5665 77.3179 14.214 77.3179 15.0556C77.3179 16.7713 78.7677 18.131 80.5073 17.9692C82.0215 17.8398 83.1812 16.5125 83.149 14.9909C83.0846 14.3434 82.8268 13.7283 82.408 13.2428Z" fill="#3768B1"/>
<path d="M80.1853 18.5196C79.3478 18.5196 78.5422 18.1959 77.8979 17.6131C77.1893 16.9656 76.8026 16.0591 76.8026 15.0881C76.8026 14.0846 77.2858 13.3075 77.5758 12.9514C78.2522 12.2068 78.6068 11.3003 78.6068 10.3617V8.16019C78.6068 7.22132 78.2522 6.31502 77.6401 5.63519L77.5114 5.47322C77.1569 5.02007 76.8026 4.30782 76.8026 3.40137C76.8348 2.49494 77.2537 1.55612 77.9301 0.908662C78.5746 0.293579 79.4443 -0.0301605 80.3464 0.00221344C82.0216 0.0669613 83.4391 1.39425 83.6001 3.07765C83.6647 3.75748 83.5358 4.40494 83.2137 4.98771C83.1169 5.18183 82.988 5.37616 82.827 5.53792C82.1505 6.2501 81.796 7.15662 81.796 8.12784V10.3293C81.796 11.268 82.1505 12.1745 82.7948 12.8867L82.9237 13.0486C83.3747 13.6312 83.6001 14.2787 83.6323 14.9909C83.6647 16.7715 82.3116 18.293 80.5718 18.4549C80.4107 18.5196 80.3142 18.5196 80.1853 18.5196ZM78.3811 5.02007C79.1543 5.89401 79.5732 6.99486 79.5732 8.16019V10.3617C79.5732 11.5593 79.1221 12.6923 78.3168 13.5988C78.1236 13.8255 77.769 14.4083 77.769 15.1205C77.769 15.8003 78.059 16.4478 78.5746 16.9333C79.09 17.3864 79.7664 17.6131 80.4431 17.5484C81.6995 17.4188 82.6659 16.3505 82.6337 15.0556C82.6337 14.5054 82.4081 13.9873 82.0538 13.5665L81.9249 13.4371C81.1839 12.5953 80.7974 11.4946 80.7974 10.3617V8.16019C80.7974 6.92994 81.2484 5.7646 82.1183 4.89044C82.2149 4.79339 82.2794 4.69633 82.3438 4.56681C82.5692 4.14595 82.6659 3.66036 82.6016 3.17477C82.5048 1.97696 81.4739 1.00578 80.282 0.97341C79.4765 0.941036 78.8967 1.29713 78.5746 1.62087C78.059 2.10646 77.769 2.78629 77.769 3.43374C77.769 4.1136 78.0912 4.66398 78.3811 5.02007Z" fill="#3768B1"/>
<path d="M70.5526 13.2428C69.8438 12.4982 69.4251 11.4623 69.4251 10.3615V8.16021C69.4251 7.02723 69.8762 5.9913 70.617 5.2142C70.7459 5.08479 70.8426 4.92281 70.9393 4.7934C71.1969 4.30779 71.3258 3.75746 71.2615 3.14237C71.1326 1.68559 69.9084 0.552544 68.4909 0.487797C66.7189 0.423049 65.4947 1.97696 65.4625 3.40137C65.4625 4.24307 65.8492 4.89046 66.1714 5.2789C66.8478 6.02365 67.2667 7.02723 67.2667 8.12785V10.3291C67.2667 11.4623 66.8478 12.4659 66.139 13.2104C65.8814 13.5665 65.4625 14.214 65.4625 15.0556C65.4625 16.7713 66.9122 18.131 68.652 17.9692C70.1662 17.8398 71.3258 16.5125 71.2936 14.9909C71.2291 14.3434 70.9715 13.7283 70.5526 13.2428Z" fill="#3768B1"/>
<path d="M68.3298 18.5193C67.4921 18.5193 66.6867 18.1958 66.0425 17.6454C65.3336 16.9979 64.9471 16.0914 64.9471 15.1202C64.9471 14.1166 65.4304 13.3397 65.7203 12.9836C66.3968 12.2391 66.7511 11.3326 66.7511 10.3937V8.19244C66.7511 7.25357 66.3968 6.34727 65.7847 5.66744L65.6558 5.50546C65.3015 5.05231 64.9471 4.34004 64.9471 3.4336C64.9793 2.52717 65.3982 1.58835 66.0746 0.940889C66.7189 0.325805 67.5888 0.00206605 68.4909 0.03444C70.1662 0.0991879 71.5836 1.42648 71.7447 3.10988C71.809 3.78971 71.6801 4.43717 71.358 5.01996C71.2615 5.21408 71.1326 5.40841 70.9715 5.57017C70.2948 6.28235 69.9405 7.18887 69.9405 8.19244V10.3937C69.9405 11.3326 70.2948 12.2391 70.9393 12.9513L71.068 13.1132C71.5191 13.6958 71.7447 14.3433 71.7769 15.0878C71.809 16.8685 70.4559 18.3899 68.7163 18.5519C68.5552 18.5193 68.4263 18.5193 68.3298 18.5193ZM66.5257 5.01996C67.2989 5.89391 67.7177 6.99454 67.7177 8.16008V10.3613C67.7177 11.5592 67.2667 12.6922 66.4613 13.5987C66.2679 13.8254 65.9136 14.408 65.9136 15.1202C65.9136 15.8 66.2035 16.4475 66.7189 16.9332C67.2345 17.3863 67.8788 17.613 68.5874 17.5483C69.8438 17.4187 70.8104 16.3504 70.7783 15.0555C70.7783 14.5053 70.5526 13.9872 70.1983 13.5664L70.0694 13.4368C69.3284 12.5952 68.9419 11.4945 68.9419 10.3613V8.16008C68.9419 6.92983 69.393 5.7645 70.2627 4.89034C70.3594 4.79328 70.4237 4.69622 70.4883 4.56666C70.7137 4.14582 70.8104 3.66021 70.7459 3.17463C70.6494 1.97681 69.6184 1.00564 68.4263 0.973263C67.621 0.940889 67.0411 1.29698 66.7189 1.62072C66.2035 2.10631 65.9136 2.78614 65.9136 3.4336C65.8814 4.11345 66.2357 4.66387 66.5257 5.01996Z" fill="#3768B1"/>
<path d="M74.2575 12.7251C72.4212 12.7251 70.9392 11.2358 70.9392 9.3906C70.9392 7.54522 72.4212 6.05615 74.2575 6.05615C76.0939 6.05615 77.6078 7.54522 77.6078 9.3906C77.6078 11.2358 76.0939 12.7251 74.2575 12.7251ZM74.2575 6.96267C72.9366 6.96267 71.8413 8.06329 71.8413 9.3906C71.8413 10.7179 72.9366 11.8185 74.2575 11.8185C75.5783 11.8185 76.6736 10.7179 76.6736 9.3906C76.6736 8.03094 75.6104 6.96267 74.2575 6.96267Z" fill="#F4A02F"/>
<path d="M5.73415 38.0406C5.05764 37.2961 4.6066 36.2925 4.6066 35.1919V32.9904C4.6066 31.8574 5.05764 30.8215 5.76639 30.0767C5.89524 29.9473 5.99188 29.8179 6.08855 29.6559C6.34626 29.1704 6.47514 28.62 6.41069 28.0049C6.28183 26.5805 5.08985 25.4475 3.64014 25.3828C1.86825 25.3179 0.644043 26.8719 0.644043 28.2963C0.644043 29.1381 1.03063 29.7856 1.35279 30.174C2.02933 30.9185 2.44813 31.9221 2.44813 33.0227V35.2242C2.44813 36.3248 2.02933 37.3608 1.32058 38.1053C1.06285 38.4614 0.644043 39.1089 0.644043 39.9507C0.644043 41.6341 2.09376 42.9937 3.8012 42.8318C5.28313 42.7023 6.44292 41.375 6.41069 39.8857C6.41069 39.1089 6.12076 38.5261 5.73415 38.0406Z" fill="#3768B1"/>
<path d="M3.51122 43.2848C2.67361 43.2848 1.86821 42.961 1.25611 42.4106C0.547358 41.7631 0.160767 40.8566 0.160767 39.9179C0.160767 38.9144 0.644007 38.1698 0.93395 37.7812C1.61048 37.069 1.96486 36.1304 1.96486 35.1915V32.99C1.96486 32.0511 1.61048 31.1772 0.998382 30.465L0.869517 30.303C0.515142 29.8499 0.160767 29.1377 0.160767 28.2635C0.192983 27.3572 0.579575 26.4507 1.28832 25.8033C1.93264 25.1881 2.80247 24.8644 3.67231 24.8967C5.34752 24.9617 6.73281 26.2888 6.8939 27.9722C6.95833 28.652 6.82947 29.2995 6.50731 29.8822C6.41067 30.0766 6.28179 30.2707 6.12072 30.4327C5.44419 31.1448 5.08981 32.0511 5.08981 33.0224V35.2238C5.08981 36.1627 5.44419 37.069 6.08851 37.7488L6.21736 37.9108C6.66838 38.461 6.8939 39.1408 6.92612 39.8532C6.95833 41.6337 5.63747 43.1228 3.86559 43.2848C3.73674 43.2848 3.6401 43.2848 3.51122 43.2848ZM1.73935 29.8499C2.51252 30.7241 2.93135 31.8247 2.93135 32.9577V35.1591C2.93135 36.3568 2.48031 37.49 1.67492 38.364C1.48162 38.5906 1.12724 39.1734 1.12724 39.8856C1.12724 40.5654 1.41719 41.2129 1.90043 41.6661C2.41588 42.1192 3.0602 42.3459 3.76895 42.2812C5.02538 42.1516 5.99185 41.0833 5.95963 39.8207C5.95963 39.2705 5.73413 38.7524 5.37976 38.3316L5.25088 38.2022C4.54213 37.3604 4.12333 36.2921 4.12333 35.1591V32.9577C4.12333 31.7276 4.57434 30.5944 5.41197 29.7205C5.50861 29.6232 5.57304 29.5262 5.63747 29.3967C5.86299 28.9757 5.95963 28.4902 5.8952 28.0371C5.79856 26.8392 4.79986 25.9003 3.57565 25.8356C2.77026 25.8033 2.2226 26.1593 1.86821 26.4831C1.35276 26.9686 1.06281 27.6161 1.06281 28.2635C1.09503 28.9434 1.41719 29.4938 1.73935 29.8499Z" fill="#3768B1"/>
<path d="M17.5253 38.0406C16.8488 37.2961 16.3977 36.2925 16.3977 35.1919V32.9904C16.3977 31.8574 16.8488 30.8215 17.5575 30.0767C17.6864 29.9473 17.783 29.8179 17.8797 29.6559C18.1374 29.1704 18.2663 28.62 18.2018 28.0049C18.073 26.5805 16.881 25.4475 15.4313 25.3828C13.6594 25.3179 12.4352 26.8719 12.4352 28.2963C12.4352 29.1381 12.8218 29.7856 13.1439 30.174C13.8205 30.9185 14.2393 31.9221 14.2393 33.0227V35.2242C14.2393 36.3248 13.8205 37.3608 13.1117 38.1053C12.854 38.4614 12.4352 39.1089 12.4352 39.9507C12.4352 41.6341 13.8849 42.9937 15.5923 42.8318C17.0743 42.7023 18.234 41.375 18.2018 39.8857C18.2018 39.1089 17.9119 38.5261 17.5253 38.0406Z" fill="#3768B1"/>
<path d="M15.3024 43.2848C14.4647 43.2848 13.6594 42.961 13.0472 42.4106C12.3385 41.7631 11.9519 40.8566 11.9519 39.9179C11.9519 38.9144 12.4352 38.1698 12.7251 37.7812C13.4016 37.069 13.756 36.1304 13.756 35.1915V32.99C13.756 32.0511 13.4016 31.1772 12.7895 30.465L12.6607 30.303C12.3063 29.8499 11.9519 29.1377 11.9519 28.2635C11.9841 27.3572 12.3707 26.4507 13.0795 25.8033C13.7238 25.1881 14.5936 24.8644 15.4634 24.8967C17.1387 24.9617 18.524 26.2888 18.685 27.9722C18.7495 28.652 18.6206 29.2995 18.2984 29.8822C18.2018 30.0766 18.0729 30.2707 17.9119 30.4327C17.2353 31.1448 16.8809 32.0511 16.8809 33.0224V35.2238C16.8809 36.1627 17.2353 37.069 17.8796 37.7488L18.0085 37.9108C18.4595 38.461 18.6851 39.1408 18.7173 39.8532C18.7495 41.6337 17.4286 43.1228 15.6567 43.2848C15.5279 43.2848 15.4312 43.2848 15.3024 43.2848ZM13.5305 29.8499C14.3037 30.7241 14.7225 31.8247 14.7225 32.9577V35.1591C14.7225 36.3568 14.2715 37.49 13.4661 38.364C13.2728 38.5906 12.9184 39.1734 12.9184 39.8856C12.9184 40.5654 13.2083 41.2129 13.6916 41.6661C14.207 42.1192 14.8514 42.3459 15.5601 42.2812C16.8165 42.1516 17.783 41.0833 17.7508 39.8207C17.7508 39.2705 17.5253 38.7524 17.1709 38.3316L17.042 38.2022C16.3333 37.3604 15.9145 36.2921 15.9145 35.1591V32.9577C15.9145 31.7276 16.3655 30.5944 17.2031 29.7205C17.2998 29.6232 17.3642 29.5262 17.4286 29.3967C17.6541 28.9757 17.7508 28.4902 17.6864 28.0371C17.5897 26.8392 16.591 25.9003 15.3668 25.8356C14.5614 25.8033 14.0137 26.1593 13.6594 26.4831C13.1439 26.9686 12.854 27.6161 12.854 28.2635C12.8862 28.9434 13.2083 29.4938 13.5305 29.8499Z" fill="#3768B1"/>
<path d="M9.4391 37.5224C7.6028 37.5224 6.12085 36.0331 6.12085 34.188C6.12085 32.3426 7.6028 30.8535 9.4391 30.8535C11.2754 30.8535 12.7573 32.3426 12.7573 34.188C12.7573 36.0331 11.2432 37.5224 9.4391 37.5224ZM9.4391 31.7924C8.11824 31.7924 7.05512 32.8607 7.05512 34.188C7.05512 35.5153 8.11824 36.5836 9.4391 36.5836C10.76 36.5836 11.8231 35.5153 11.8231 34.188C11.8231 32.8607 10.76 31.7924 9.4391 31.7924Z" fill="#F4A02F"/>
<path d="M35.5661 40.242C33.8266 41.9902 31.7648 42.8641 29.3486 42.8641C26.9647 42.8641 24.9027 42.0225 23.1953 40.3067C21.4879 38.591 20.6503 36.5515 20.6503 34.1236C20.6503 31.728 21.4879 29.6559 23.1953 27.9402C24.9027 26.2244 26.9323 25.3828 29.3486 25.3828C31.7326 25.3828 33.7944 26.2244 35.5018 27.9402C37.2092 29.6559 38.047 31.6954 38.047 34.1236V41.6017C38.047 41.9578 37.9181 42.2492 37.6924 42.4757C37.4349 42.7347 37.1449 42.8317 36.8228 42.8317C36.5006 42.8317 36.1783 42.7023 35.9528 42.4757C35.695 42.2168 35.5985 41.9254 35.5985 41.6017V40.242H35.5661ZM29.3807 27.8755C27.6733 27.8755 26.1915 28.4906 24.9995 29.6885C23.7752 30.9185 23.1953 32.3752 23.1953 34.0912C23.1953 35.807 23.8074 37.296 24.9995 38.4939C26.2237 39.724 27.6733 40.3067 29.3807 40.3067C31.0882 40.3067 32.5702 39.6916 33.7622 38.4939C34.9864 37.2637 35.5661 35.807 35.5661 34.0912C35.5661 32.3752 34.954 30.8862 33.7622 29.6885C32.538 28.4906 31.0882 27.8755 29.3807 27.8755Z" fill="#233987"/>
<path d="M36.8225 43.3174C36.3714 43.3174 35.9528 43.1554 35.6306 42.8316C35.3085 42.5079 35.1472 42.0871 35.1472 41.634V41.3102C33.5043 42.6699 31.5713 43.3497 29.4128 43.3497C26.9001 43.3497 24.7094 42.4432 22.9374 40.6627C21.1656 38.8823 20.2635 36.6808 20.2635 34.1558C20.2635 31.6306 21.1656 29.4293 22.9374 27.6489C24.7094 25.8682 26.9001 24.9619 29.4128 24.9619C31.9258 24.9619 34.1165 25.8682 35.8882 27.6489C37.6602 29.4293 38.5623 31.6306 38.5623 34.1558V41.634C38.5623 42.0871 38.4012 42.5079 38.0791 42.8316C37.6924 43.123 37.2735 43.3174 36.8225 43.3174ZM36.0171 39.1087V41.6016C36.0171 41.8281 36.0817 41.9901 36.2427 42.1518C36.4038 42.3138 36.5649 42.3785 36.7903 42.3785C37.0159 42.3785 37.177 42.3138 37.3381 42.1518C37.4991 41.9901 37.5635 41.8281 37.5635 41.6016V34.1235C37.5635 31.8573 36.7581 29.8825 35.1472 28.2638C33.5365 26.6453 31.6035 25.8359 29.3163 25.8359C27.0611 25.8359 25.0959 26.6453 23.4852 28.2638C21.8743 29.8825 21.069 31.8249 21.069 34.1235C21.069 36.3894 21.8743 38.3642 23.4852 39.9829C25.0959 41.6016 27.029 42.4108 29.3163 42.4108C31.5713 42.4108 33.5687 41.5693 35.1796 39.9182L36.0171 39.1087ZM29.3807 40.8245C27.5443 40.8245 25.9658 40.1772 24.677 38.8823C23.3885 37.5873 22.7442 36.001 22.7442 34.1558C22.7442 32.3104 23.3885 30.7243 24.677 29.4293C25.9658 28.1344 27.5443 27.4869 29.3807 27.4869C31.217 27.4869 32.7955 28.1344 34.0843 29.4293C35.3728 30.7243 36.0171 32.3104 36.0171 34.1558C36.0171 36.001 35.3728 37.5873 34.0843 38.8823C32.7955 40.1447 31.1848 40.8245 29.3807 40.8245ZM29.3807 28.3611C27.77 28.3611 26.449 28.9113 25.3215 30.0445C24.1938 31.1775 23.6463 32.5048 23.6463 34.1235C23.6463 35.7419 24.1938 37.0693 25.3215 38.2025C26.449 39.3354 27.77 39.8859 29.3807 39.8859C30.9916 39.8859 32.3123 39.3354 33.4398 38.2025C34.5675 37.0693 35.115 35.7419 35.115 34.1235C35.115 32.5048 34.5675 31.1775 33.4398 30.0445C32.3123 28.9113 30.9592 28.3611 29.3807 28.3611Z" fill="#233987"/>
<path d="M46.6161 41.5694L40.6561 27.1956C40.5594 27.0339 40.5272 26.8395 40.5272 26.6129C40.5272 26.2568 40.6561 25.9656 40.8817 25.7389C41.1393 25.4799 41.4293 25.3828 41.7514 25.3828C42.0736 25.3828 42.3957 25.5122 42.6213 25.7389C42.7502 25.8683 42.8468 26.0303 42.9113 26.1921L47.9369 38.2996L52.9626 26.1921C53.027 26.0303 53.1237 25.8683 53.2848 25.7389C53.5104 25.5122 53.8001 25.3828 54.1547 25.3828C54.509 25.3828 54.799 25.5122 55.0244 25.7389C55.2822 25.9979 55.3789 26.2891 55.3789 26.6129C55.3789 26.8072 55.3467 27.0015 55.25 27.1956L46.0362 49.5006C45.9719 49.6626 45.8751 49.8244 45.7462 49.9538C45.4886 50.2128 45.1987 50.3425 44.8765 50.3425C44.522 50.3425 44.232 50.2128 44.0066 49.9862C43.7488 49.7273 43.6523 49.4359 43.6523 49.1122C43.6523 48.9179 43.6845 48.7238 43.781 48.5294L46.6161 41.5694Z" fill="#233987"/>
<path d="M44.8445 50.7955C44.3935 50.7955 43.9746 50.6335 43.6525 50.3098C43.3303 49.9863 43.1692 49.5653 43.1692 49.1121C43.1692 48.8207 43.2336 48.5617 43.3625 48.3352L46.1331 41.634L40.2376 27.3899C40.1409 27.1955 40.0765 26.9041 40.0765 26.6453C40.0765 26.192 40.2376 25.7712 40.5597 25.4474C40.8819 25.1237 41.3008 24.9619 41.7518 24.9619C42.2028 24.9619 42.6215 25.1237 42.9436 25.4474C43.1371 25.6417 43.2658 25.8682 43.3625 26.0949L47.9694 37.1342L52.5763 26.0625C52.6406 25.8359 52.8017 25.6417 52.9952 25.4474C53.3173 25.1237 53.7359 24.9619 54.187 24.9619C54.638 24.9619 55.0569 25.1237 55.379 25.4474C55.7012 25.7712 55.8944 26.192 55.8944 26.6453C55.8944 26.9365 55.8301 27.1955 55.7012 27.4222L46.4874 49.6625C46.423 49.889 46.262 50.0833 46.1009 50.2774C45.7142 50.6012 45.3277 50.7955 44.8445 50.7955ZM41.784 25.8682C41.5583 25.8682 41.3973 25.9331 41.2362 26.0949C41.0751 26.2567 41.0108 26.4186 41.0108 26.6453C41.0108 26.7747 41.043 26.9041 41.1073 27.0014L47.164 41.5693L44.2324 48.659C44.1678 48.8207 44.1357 48.9178 44.1357 49.0474C44.1357 49.2739 44.2002 49.4358 44.3613 49.5976C44.6834 49.9213 45.1345 49.9213 45.4566 49.5976C45.5531 49.5006 45.6177 49.4035 45.6499 49.3064L54.8958 27.0014C54.9602 26.8394 54.9925 26.7424 54.9925 26.613C54.9925 26.3863 54.928 26.2243 54.7669 26.0625C54.6059 25.9006 54.4448 25.8359 54.2194 25.8359C53.9937 25.8359 53.8327 25.9006 53.6716 26.0625C53.5749 26.1596 53.5105 26.2567 53.4784 26.3539L47.9694 39.5298L42.525 26.3863C42.4926 26.2567 42.3961 26.1596 42.3315 26.0625C42.1704 25.9331 42.0094 25.8682 41.784 25.8682Z" fill="#233987"/>
<path d="M57.8917 26.6454C57.8917 26.2893 58.0206 25.9979 58.246 25.7713C58.5038 25.5124 58.7938 25.4152 59.1159 25.4152C59.4703 25.4152 59.7602 25.5448 59.9858 25.7713C60.2434 26.0303 60.3402 26.3217 60.3402 26.6454V33.4437L69.4572 25.7066C69.6829 25.5124 69.9728 25.3828 70.295 25.3828C70.6493 25.3828 70.9392 25.5124 71.1647 25.7389C71.4225 25.9979 71.5192 26.2893 71.5192 26.6131C71.5192 26.9692 71.3903 27.2605 71.1647 27.4872L63.465 34.0589L71.1647 40.6954C71.3903 40.9542 71.5192 41.2456 71.5192 41.5694C71.5192 41.9254 71.3903 42.2168 71.1647 42.4435C70.9071 42.7023 70.6171 42.7996 70.295 42.7996C69.9728 42.7996 69.715 42.7023 69.4894 42.5082L61.5644 35.6776L60.3723 36.6811V41.5694C60.3723 41.9254 60.2434 42.2168 60.018 42.4435C59.7602 42.7023 59.4703 42.7996 59.1481 42.7996C58.7938 42.7996 58.5038 42.67 58.2784 42.4435C58.0206 42.1845 57.9239 41.8931 57.9239 41.5694V26.6454H57.8917Z" fill="#233987"/>
<path d="M70.2948 43.3175C69.8762 43.3175 69.4895 43.1881 69.1995 42.8967L61.5645 36.3248L60.8556 36.94V41.6017C60.8556 42.0549 60.6946 42.4759 60.3724 42.7994C60.0503 43.1232 59.6314 43.2851 59.1804 43.2851C58.7293 43.2851 58.3107 43.1232 57.9886 42.7671C57.6662 42.4433 57.5051 42.0225 57.5051 41.5694V26.6131C57.5051 26.1597 57.6662 25.7389 57.9886 25.4152C58.3107 25.0914 58.7293 24.9297 59.1804 24.9297C59.6314 24.9297 60.0503 25.0914 60.3724 25.4152C60.6946 25.7389 60.8556 26.1597 60.8556 26.6131V32.4402L69.1995 25.3505C69.4895 25.0591 69.8762 24.9297 70.3272 24.9297C70.7783 24.9297 71.1969 25.0914 71.5191 25.4152C71.8414 25.7389 72.0025 26.1597 72.0025 26.6131C72.0025 27.0662 71.8414 27.487 71.5191 27.8108L64.2061 34.0589L71.4869 40.3715C71.8414 40.7276 72.0025 41.1486 72.0025 41.6017C72.0025 42.0549 71.8414 42.4759 71.5191 42.7994C71.1648 43.1232 70.7783 43.3175 70.2948 43.3175ZM61.5645 35.0948L69.8116 42.1845C69.9727 42.3139 70.1338 42.3786 70.3272 42.3786C70.5526 42.3786 70.7137 42.3139 70.8748 42.1522C71.0358 41.9902 71.1004 41.8284 71.1004 41.6017C71.1004 41.375 71.0358 41.1809 70.8748 41.019L62.7887 34.0589L70.907 27.1633C71.0359 27.0339 71.1004 26.8719 71.1004 26.6454C71.1004 26.4188 71.0358 26.257 70.8748 26.095C70.7137 25.9333 70.5526 25.8683 70.3272 25.8683C70.1338 25.8683 69.9727 25.9333 69.8116 26.0627L59.9536 34.4473V26.6454C59.9536 26.4188 59.8892 26.257 59.7281 26.095C59.406 25.7713 58.955 25.7713 58.6328 26.095C58.4718 26.257 58.4072 26.4188 58.4072 26.6454V41.6017C58.4072 41.8284 58.4718 41.9902 58.6328 42.1522C58.7939 42.3139 58.955 42.3786 59.1804 42.3786C59.406 42.3786 59.5671 42.3139 59.7281 42.1522C59.8892 41.9902 59.9536 41.8284 59.9536 41.6017V36.5192L61.5645 35.0948Z" fill="#233987"/>
<path d="M90.1401 41.6017C90.1401 41.9578 90.0112 42.2492 89.7858 42.4759C89.528 42.7349 89.238 42.832 88.9159 42.832C88.5616 42.832 88.2716 42.7026 88.046 42.4759C87.7884 42.2169 87.6917 41.9255 87.6917 41.6017V40.5982C86.1453 42.1198 84.2768 42.8643 82.1183 42.8643C79.8953 42.8643 77.9947 42.0874 76.4161 40.5011C74.8374 38.9148 74.0642 37.0049 74.0642 34.7711V26.6778C74.0642 26.3217 74.1931 26.0303 74.4187 25.8038C74.6763 25.5448 74.9663 25.4478 75.2884 25.4478C75.643 25.4478 75.9329 25.5772 76.1583 25.8038C76.4161 26.0627 76.5126 26.3541 76.5126 26.6778V34.7711C76.5126 36.3251 77.0604 37.6524 78.1557 38.753C79.251 39.8536 80.572 40.404 82.1183 40.404C83.6647 40.404 84.9854 39.8536 86.0486 38.753C87.1117 37.6524 87.6917 36.3251 87.6917 34.7711V26.6778C87.6917 26.3217 87.8206 26.0303 88.046 25.8038C88.3038 25.5448 88.5937 25.4478 88.9159 25.4478C89.2702 25.4478 89.5602 25.5772 89.7858 25.8038C90.0434 26.0627 90.1401 26.3541 90.1401 26.6778V41.6017Z" fill="#233987"/>
<path d="M88.9158 43.3172C88.4648 43.3172 88.0459 43.1555 87.7238 42.8317C87.4017 42.508 87.2406 42.087 87.2406 41.6338C85.7588 42.7668 84.0514 43.3496 82.1183 43.3496C79.7666 43.3496 77.737 42.508 76.094 40.8246C74.4509 39.1735 73.5812 37.1341 73.5812 34.7708V26.6775C73.5812 26.2244 73.7422 25.8034 74.0644 25.4796C74.3865 25.1561 74.8052 24.9941 75.2562 24.9941C75.7073 24.9941 76.1261 25.1561 76.4483 25.4796C76.7704 25.8034 76.9315 26.2244 76.9315 26.6775V34.7708C76.9315 36.1952 77.4147 37.3931 78.4457 38.3967C79.4445 39.4002 80.6363 39.9181 82.054 39.9181C83.4714 39.9181 84.6633 39.4326 85.6621 38.3967C86.6606 37.3931 87.1762 36.1952 87.1762 34.7708V26.6775C87.1762 26.2244 87.3373 25.8034 87.6595 25.4796C87.9816 25.1561 88.4005 24.9941 88.8515 24.9941C89.3025 24.9941 89.7212 25.1561 90.0433 25.4796C90.3657 25.8034 90.5589 26.2244 90.5589 26.6775V41.6338C90.5589 42.087 90.3979 42.508 90.0433 42.8317C89.7857 43.1231 89.3669 43.3172 88.9158 43.3172ZM88.1427 39.4973V41.6015C88.1427 41.8282 88.207 41.9899 88.3683 42.1519C88.6904 42.4756 89.1415 42.4756 89.4636 42.1519C89.6247 41.9899 89.689 41.8282 89.689 41.6015V26.6452C89.689 26.4185 89.6247 26.2567 89.4636 26.0948C89.1415 25.771 88.6904 25.771 88.3683 26.0948C88.207 26.2567 88.1427 26.4185 88.1427 26.6452V34.7385C88.1427 36.4219 87.5627 37.8462 86.3709 39.0441C85.211 40.2095 83.7614 40.8246 82.0861 40.8246C80.4109 40.8246 78.9934 40.2418 77.8014 39.0441C76.6415 37.8786 76.0294 36.4219 76.0294 34.7385V26.6452C76.0294 26.4185 75.965 26.2567 75.804 26.0948C75.4818 25.771 75.0308 25.771 74.7087 26.0948C74.5476 26.2567 74.483 26.4185 74.483 26.6452V34.7385C74.483 36.875 75.224 38.6231 76.7061 40.1448C78.2202 41.6662 79.9598 42.3784 82.0861 42.3784C84.1157 42.3784 85.8875 41.6662 87.3373 40.2418L88.1427 39.4973Z" fill="#233987"/>
<path d="M9.4391 37.5224C11.2717 37.5224 12.7573 36.0295 12.7573 34.188C12.7573 32.3465 11.2717 30.8535 9.4391 30.8535C7.60649 30.8535 6.12085 32.3465 6.12085 34.188C6.12085 36.0295 7.60649 37.5224 9.4391 37.5224Z" fill="#233987"/>
<path d="M89.1734 16.836C89.1734 17.1923 89.0445 17.4834 88.8189 17.7101C88.5613 17.9692 88.2713 18.0662 87.9492 18.0662C87.5947 18.0662 87.3047 17.9368 87.0793 17.7101C86.8215 17.4511 86.725 17.1597 86.725 16.836V1.87973C86.725 1.52361 86.8539 1.23227 87.0793 1.00565C87.3371 0.746662 87.6271 0.649562 87.9492 0.649562C88.3035 0.649562 88.5935 0.779036 88.8189 1.00565C89.0767 1.26465 89.1734 1.55599 89.1734 1.87973V2.20345C90.3976 1.16752 91.8473 0.617188 93.5225 0.617188C95.391 0.617188 97.0017 1.29702 98.3548 2.62431C98.6448 2.91567 98.9026 3.20702 99.128 3.49838C99.3536 3.17464 99.6112 2.8833 99.9012 2.62431C101.222 1.29702 102.833 0.617188 104.734 0.617188C106.602 0.617188 108.213 1.29702 109.566 2.62431C110.887 3.9516 111.563 5.57021 111.563 7.48029V16.836C111.563 17.1923 111.435 17.4834 111.209 17.7101C110.951 17.9692 110.661 18.0662 110.339 18.0662C109.985 18.0662 109.695 17.9368 109.469 17.7101C109.212 17.4511 109.115 17.1597 109.115 16.836V7.48029C109.115 6.28239 108.696 5.24647 107.859 4.40481C107.021 3.56313 105.99 3.14227 104.798 3.14227C103.606 3.14227 102.575 3.56313 101.738 4.40481C100.9 5.24647 100.481 6.28239 100.481 7.48029V16.836C100.481 17.1923 100.352 17.4834 100.127 17.7101C99.869 17.9692 99.579 18.0662 99.2569 18.0662C98.9026 18.0662 98.6126 17.9368 98.387 17.7101C98.1294 17.4511 98.0327 17.1597 98.0327 16.836V7.48029C98.0327 6.28239 97.6138 5.24647 96.7763 4.40481C95.9388 3.56313 94.9078 3.14227 93.7157 3.14227C92.5237 3.14227 91.4929 3.56313 90.6552 4.40481C89.8177 5.24647 89.3988 6.28239 89.3988 7.48029V16.836H89.1734Z" fill="#233987"/>
<path d="M110.275 18.5519C109.824 18.5519 109.405 18.3899 109.083 18.0661C108.761 17.7424 108.6 17.3216 108.6 16.8685V7.48023C108.6 6.37961 108.213 5.50545 107.472 4.72856C106.699 3.95156 105.797 3.59545 104.734 3.59545C103.638 3.59545 102.769 3.98393 101.995 4.72856C101.222 5.50545 100.868 6.41196 100.868 7.48023V16.8361C100.868 17.2893 100.707 17.7101 100.385 18.0338C100.063 18.3575 99.6436 18.5193 99.1926 18.5193C98.7416 18.5193 98.3227 18.3575 98.0006 18.0338C97.6784 17.7101 97.5173 17.2893 97.5173 16.8361V7.48023C97.5173 6.37961 97.1309 5.50545 96.3899 4.72856C95.6167 3.95156 94.7146 3.59545 93.6515 3.59545C92.5561 3.59545 91.6862 3.98393 90.9131 4.72856C90.1399 5.50545 89.7856 6.41196 89.7856 7.48023V16.8361C89.7856 17.2893 89.6245 17.7101 89.3024 18.0338C88.9802 18.3575 88.5613 18.5193 88.1103 18.5193C87.6593 18.5193 87.2404 18.3575 86.9183 18.0338C86.5961 17.7101 86.4351 17.2893 86.4351 16.8361V1.87969C86.4351 1.42646 86.5961 1.00562 86.9183 0.681878C87.2404 0.35816 87.6593 0.196289 88.1103 0.196289C88.5613 0.196289 88.9802 0.35816 89.3024 0.681878C89.4956 0.876121 89.6245 1.10274 89.721 1.36171C90.8809 0.584756 92.2018 0.196289 93.6836 0.196289C95.681 0.196289 97.4206 0.908495 98.8383 2.33291C98.9994 2.49478 99.1283 2.65664 99.2569 2.81849C99.3858 2.65664 99.5469 2.49478 99.6758 2.33291C101.093 0.908495 102.833 0.196289 104.83 0.196289C106.828 0.196289 108.567 0.908495 109.985 2.33291C111.402 3.75732 112.111 5.50544 112.111 7.51259V16.8685C112.111 17.3216 111.95 17.7424 111.628 18.0661C111.145 18.3899 110.726 18.5519 110.275 18.5519ZM104.702 2.65665C106.022 2.65665 107.15 3.14223 108.084 4.08106C109.019 5.01994 109.502 6.15292 109.502 7.48023V16.8361C109.502 17.0626 109.566 17.2246 109.727 17.3863C110.049 17.7101 110.5 17.7101 110.823 17.3863C110.984 17.2246 111.048 17.0626 111.048 16.8361V7.48023C111.048 5.69977 110.436 4.21053 109.18 2.94799C107.923 1.68545 106.441 1.07037 104.669 1.07037C102.897 1.07037 101.415 1.68545 100.159 2.94799C99.9014 3.20698 99.6436 3.49832 99.4504 3.78969L99.0637 4.30765L98.6772 3.78969C98.4516 3.49832 98.2262 3.20698 97.9684 2.94799C96.712 1.68545 95.23 1.07037 93.4582 1.07037C91.9119 1.07037 90.5587 1.55595 89.3989 2.52715L88.6257 3.17461V1.84732C88.6257 1.6207 88.5614 1.45883 88.4003 1.29696C88.2392 1.13511 88.0781 1.07037 87.8525 1.07037C87.6271 1.07037 87.466 1.13511 87.305 1.29696C87.1439 1.45883 87.0793 1.6207 87.0793 1.84732V16.8035C87.0793 17.0302 87.1439 17.1922 87.305 17.354C87.6271 17.6777 88.0781 17.6777 88.4003 17.354C88.5614 17.1922 88.6257 17.0302 88.6257 16.8035V7.48023C88.6257 6.15292 89.1091 5.01994 90.0434 4.08106C90.9776 3.14223 92.1051 2.65665 93.426 2.65665C94.7468 2.65665 95.8743 3.14223 96.8087 4.08106C97.743 5.01994 98.2262 6.15292 98.2262 7.48023V16.8361C98.2262 17.0626 98.2905 17.2246 98.4516 17.3863C98.7737 17.7101 99.2248 17.7101 99.5469 17.3863C99.708 17.2246 99.7725 17.0626 99.7725 16.8361V7.48023C99.7725 6.15292 100.256 5.01994 101.19 4.08106C102.221 3.14223 103.381 2.65665 104.702 2.65665Z" fill="#233987"/>
<path d="M117.62 24.3142C117.62 24.6703 117.491 24.9617 117.266 25.1884C117.008 25.4472 116.718 25.5445 116.396 25.5445C116.041 25.5445 115.751 25.4148 115.526 25.1884C115.268 24.9293 115.172 24.6379 115.172 24.3142V9.35792C115.172 6.96233 116.009 4.89049 117.717 3.17464C119.424 1.45887 121.454 0.617188 123.87 0.617188C126.286 0.617188 128.316 1.45887 130.023 3.17464C131.731 4.89049 132.568 6.92998 132.568 9.35792C132.568 11.7859 131.731 13.8254 130.023 15.5411C128.316 17.2569 126.286 18.0987 123.87 18.0987C121.454 18.0987 119.424 17.2569 117.717 15.5411C117.684 15.5088 117.685 15.5088 117.652 15.4764V24.3142H117.62ZM117.62 9.35792C117.62 11.0737 118.232 12.5627 119.424 13.7606C120.648 14.9909 122.098 15.5735 123.806 15.5735C125.513 15.5735 126.995 14.9583 128.187 13.7606C129.411 12.5304 129.991 11.0737 129.991 9.35792C129.991 7.64216 129.379 6.15287 128.187 4.95519C126.963 3.72498 125.513 3.14227 123.806 3.14227C122.098 3.14227 120.616 3.75735 119.424 4.95519C118.232 6.15287 117.62 7.64216 117.62 9.35792Z" fill="#233987"/>
<path d="M116.364 26.0301C115.912 26.0301 115.494 25.8681 115.172 25.512C114.85 25.1883 114.688 24.7675 114.688 24.3144V9.35807C114.688 6.83286 115.59 4.63154 117.362 2.85101C119.134 1.07051 121.325 0.164062 123.838 0.164062C126.35 0.164062 128.541 1.07051 130.313 2.85101C132.085 4.63154 132.987 6.83286 132.987 9.35807C132.987 11.8831 132.085 14.0845 130.313 15.865C128.541 17.6455 126.35 18.552 123.838 18.552C121.647 18.552 119.714 17.8721 118.103 16.5125V24.3144C118.103 24.7675 117.942 25.1883 117.62 25.512C117.233 25.8681 116.847 26.0301 116.364 26.0301ZM123.806 1.10289C121.55 1.10289 119.585 1.91221 117.974 3.53084C116.364 5.14946 115.558 7.09189 115.558 9.39042V24.3467C115.558 24.5734 115.623 24.7352 115.784 24.8971C116.106 25.2207 116.557 25.2207 116.879 24.8971C117.04 24.7352 117.105 24.5734 117.105 24.3467V14.3434L117.942 15.1852C119.553 16.8039 121.518 17.6131 123.773 17.6131C126.028 17.6131 127.994 16.8039 129.604 15.1852C131.215 13.5665 132.021 11.624 132.021 9.32572C132.021 7.05954 131.215 5.08475 129.604 3.4661C128.026 1.91221 126.093 1.10289 123.806 1.10289ZM123.806 16.0591C121.969 16.0591 120.391 15.4118 119.102 14.1169C117.813 12.8219 117.169 11.2356 117.169 9.39042C117.169 7.54504 117.813 5.95891 119.102 4.66395C120.391 3.36897 121.969 2.72152 123.806 2.72152C125.642 2.72152 127.22 3.36897 128.509 4.66395C129.798 5.95891 130.442 7.54504 130.442 9.39042C130.442 11.2356 129.798 12.8219 128.509 14.1169C127.253 15.4118 125.642 16.0591 123.806 16.0591ZM123.806 3.59559C122.195 3.59559 120.874 4.14593 119.746 5.27908C118.619 6.41206 118.071 7.73937 118.071 9.35807C118.071 10.9766 118.619 12.3039 119.746 13.4371C120.874 14.57 122.195 15.1205 123.806 15.1205C125.416 15.1205 126.737 14.57 127.865 13.4371C128.992 12.3039 129.54 10.9766 129.54 9.35807C129.54 7.73937 128.992 6.41206 127.865 5.27908C126.737 4.14593 125.416 3.59559 123.806 3.59559Z" fill="#233987"/>
<path d="M149.578 13.8579C149.933 13.8579 150.223 13.9873 150.448 14.214C150.706 14.473 150.803 14.7644 150.803 15.0879C150.803 15.4443 150.674 15.7354 150.448 15.9621C148.838 17.3541 146.969 18.0663 144.778 18.0663C142.394 18.0663 140.332 17.2247 138.625 15.509C136.918 13.7932 136.08 11.7537 136.08 9.32556C136.08 6.89762 136.918 4.85813 138.625 3.14242C140.332 1.42664 142.362 0.584961 144.778 0.584961C147.162 0.584961 149.224 1.42664 150.932 3.14242C152.639 4.85813 153.477 6.89762 153.477 9.32556C153.477 9.68187 153.348 9.97304 153.122 10.1997C152.865 10.4588 152.575 10.5558 152.252 10.5558H138.722C138.947 11.7537 139.527 12.7896 140.429 13.7283C141.653 14.9585 143.103 15.5413 144.81 15.5413C146.357 15.5413 147.71 15.0556 148.805 14.052C149.031 13.955 149.289 13.8579 149.578 13.8579ZM150.899 8.12788C150.674 6.92998 150.094 5.89405 149.192 4.9554C147.968 3.72513 146.518 3.14242 144.81 3.14242C143.103 3.14242 141.621 3.7575 140.429 4.9554C139.527 5.8617 138.947 6.92998 138.722 8.12788H150.899Z" fill="#233987"/>
<path d="M144.81 18.552C142.298 18.552 140.107 17.6455 138.335 15.865C136.563 14.0845 135.661 11.8831 135.661 9.35807C135.661 6.83286 136.563 4.63154 138.335 2.85101C140.107 1.07051 142.298 0.164062 144.81 0.164062C147.323 0.164062 149.514 1.07051 151.286 2.85101C153.058 4.63154 153.96 6.83286 153.96 9.35807C153.96 9.81122 153.799 10.232 153.477 10.5558C153.154 10.8795 152.736 11.0415 152.285 11.0415H139.334C139.591 11.9154 140.075 12.7249 140.784 13.4047C141.911 14.5377 143.232 15.0881 144.843 15.0881C146.293 15.0881 147.517 14.6347 148.547 13.7284C148.87 13.4694 149.224 13.3398 149.611 13.3398C150.062 13.3398 150.481 13.5018 150.803 13.8255C151.125 14.1492 151.286 14.57 151.286 15.0232C151.286 15.4766 151.125 15.8973 150.803 16.2211C149.095 17.8074 147.098 18.552 144.81 18.552ZM144.81 1.10289C142.555 1.10289 140.59 1.91221 138.979 3.53084C137.369 5.14946 136.563 7.09189 136.563 9.39042C136.563 11.6564 137.369 13.6312 138.979 15.2499C140.59 16.8686 142.523 17.6778 144.81 17.6778C146.872 17.6778 148.644 16.998 150.158 15.703C150.287 15.5736 150.352 15.3793 150.352 15.1528C150.352 14.9261 150.287 14.7644 150.126 14.6024C149.965 14.4406 149.804 14.3757 149.578 14.3757C149.385 14.3757 149.224 14.4406 149.095 14.5377C147.935 15.5736 146.486 16.124 144.81 16.124C142.974 16.124 141.396 15.4766 140.107 14.1816C139.14 13.2104 138.528 12.045 138.271 10.7824L138.174 10.232H152.252C152.478 10.232 152.639 10.1673 152.8 10.0055C152.961 9.84357 153.025 9.68181 153.025 9.45513C153.025 7.18895 152.22 5.21416 150.609 3.59559C149.031 1.91221 147.066 1.10289 144.81 1.10289ZM151.447 8.58097H138.174L138.271 8.03076C138.528 6.7358 139.14 5.60282 140.107 4.63154C141.396 3.33662 142.974 2.68914 144.81 2.68914C146.647 2.68914 148.225 3.33662 149.514 4.63154C150.481 5.60282 151.093 6.76815 151.35 8.03076L151.447 8.58097ZM139.302 7.64231H150.319C150.062 6.76815 149.578 5.95891 148.87 5.27908C147.742 4.14593 146.421 3.59559 144.81 3.59559C143.2 3.59559 141.879 4.14593 140.751 5.27908C140.043 5.99127 139.559 6.76815 139.302 7.64231Z" fill="#233987"/>
<path d="M42.0094 15.6058H43.2658C43.6201 15.6058 43.9101 15.7352 44.1355 15.9619C44.3933 16.2209 44.49 16.5123 44.49 16.836C44.49 18.8106 44.1033 20.5913 43.298 22.2423C43.2336 22.4041 43.1369 22.5661 43.008 22.6955C42.7502 22.9545 42.4602 23.0839 42.1381 23.0839C41.816 23.0839 41.4938 22.9545 41.2684 22.7278C41.0106 22.4688 40.9139 22.1774 40.9139 21.8537C40.9139 21.6272 40.9463 21.4329 41.0428 21.2711C41.526 20.2999 41.816 19.2316 41.9449 18.1308H40.7528C40.3985 18.1308 40.1085 18.0014 39.8831 17.7747C39.6253 17.5159 39.5286 17.2245 39.5286 16.9008V15.8972C37.9822 17.4186 36.1138 18.1634 33.9553 18.1634C31.7325 18.1634 29.8316 17.3863 28.2531 15.8001C26.6745 14.2138 25.9014 12.3037 25.9014 10.0701V1.97677C25.9014 1.62066 26.0303 1.32931 26.2557 1.1027C26.5135 0.843704 26.8034 0.746582 27.1256 0.746582C27.4799 0.746582 27.7699 0.876078 27.9955 1.1027C28.2531 1.36169 28.3498 1.65303 28.3498 1.97677V10.0701C28.3498 11.6239 28.8974 12.9512 29.9929 14.0194C31.0882 15.1203 32.4089 15.6705 33.9231 15.6705C35.4695 15.6705 36.7904 15.1203 37.8536 14.0194C38.9489 12.9188 39.4964 11.5915 39.4964 10.0701V1.97677C39.4964 1.62066 39.6253 1.32931 39.851 1.1027C40.1085 0.843704 40.3985 0.746582 40.7207 0.746582C41.0752 0.746582 41.3649 0.876078 41.5906 1.1027C41.8484 1.36169 41.9449 1.65303 41.9449 1.97677V15.6058H42.0094Z" fill="#233987"/>
<path d="M42.1383 23.5372C41.6872 23.5372 41.2683 23.3754 40.9462 23.0516C40.6241 22.7279 40.463 22.3071 40.463 21.8537C40.463 21.5624 40.5273 21.3035 40.6562 21.0445C41.0429 20.2676 41.3005 19.4582 41.4294 18.5842H40.7851C40.3341 18.5842 39.9152 18.4222 39.5931 18.0985C39.271 17.7748 39.1099 17.354 39.1099 16.9008C37.6279 18.0338 35.9204 18.6166 33.9876 18.6166C31.6357 18.6166 29.6061 17.7748 27.9633 16.0914C26.2556 14.3756 25.4181 12.3361 25.4181 9.97288V1.87969C25.4181 1.42646 25.5792 1.00562 25.9013 0.681878C26.2234 0.35816 26.6423 0.196289 27.0933 0.196289C27.5444 0.196289 27.9633 0.35816 28.2854 0.681878C28.6075 1.00562 28.7686 1.42646 28.7686 1.87969V9.97288C28.7686 11.3972 29.2518 12.5951 30.2828 13.5987C31.2814 14.6023 32.4734 15.1201 33.8909 15.1201C35.3083 15.1201 36.5004 14.6346 37.499 13.5987C38.4978 12.5951 39.0132 11.3972 39.0132 9.97288V1.87969C39.0132 1.42646 39.1742 1.00562 39.4964 0.681878C39.8187 0.35816 40.2374 0.196289 40.6884 0.196289C41.1395 0.196289 41.5583 0.35816 41.8805 0.681878C42.2026 1.00562 42.3958 1.42646 42.3958 1.87969V15.1201H43.169C43.6201 15.1201 44.0389 15.2821 44.3611 15.6059C44.6832 15.9296 44.8764 16.3504 44.8764 16.8035C44.8764 18.8107 44.4578 20.6884 43.6522 22.3718C43.5557 22.5985 43.4268 22.7926 43.2657 22.9869C43.0079 23.3754 42.5893 23.5372 42.1383 23.5372ZM39.9798 14.7317V16.8361C39.9798 17.0626 40.0441 17.2246 40.2052 17.3863C40.3663 17.5483 40.5273 17.613 40.753 17.613H42.4604L42.3958 18.1308C42.2669 19.2964 41.9448 20.397 41.4294 21.433C41.3651 21.5624 41.3327 21.692 41.3327 21.8214C41.3327 22.0481 41.3972 22.2098 41.5583 22.3718C41.8805 22.6956 42.3315 22.6956 42.6536 22.3718C42.7504 22.2748 42.8147 22.1775 42.8469 22.0804L42.879 22.0481C43.6201 20.4941 44.0068 18.746 44.0068 16.8685C44.0068 16.6418 43.9422 16.4798 43.7811 16.318C43.6201 16.1563 43.459 16.0914 43.2336 16.0914H41.5261V1.87969C41.5261 1.65307 41.4616 1.4912 41.3005 1.32933C40.9784 1.00562 40.5273 1.00562 40.2052 1.32933C40.0441 1.4912 39.9798 1.65307 39.9798 1.87969V9.97288C39.9798 11.6563 39.3999 13.0806 38.2078 14.2785C37.0481 15.4439 35.5983 16.059 33.9231 16.059C32.2478 16.059 30.8303 15.4764 29.6383 14.2785C28.4786 13.1132 27.8665 11.6563 27.8665 9.97288V1.87969C27.8665 1.65307 27.8022 1.4912 27.6409 1.32933C27.3188 1.00562 26.8677 1.00562 26.5456 1.32933C26.3845 1.4912 26.3202 1.65307 26.3202 1.87969V9.97288C26.3202 12.1096 27.0612 13.8577 28.543 15.3792C30.025 16.9008 31.7968 17.613 33.9231 17.613C35.9526 17.613 37.7246 16.9008 39.1742 15.4764L39.9798 14.7317Z" fill="#233987"/>
<path d="M59.2128 13.8579C59.5673 13.8579 59.8573 13.9873 60.0827 14.214C60.3405 14.473 60.437 14.7644 60.437 15.0879C60.437 15.4443 60.3083 15.7354 60.0827 15.9621C58.472 17.3541 56.6035 18.0663 54.4127 18.0663C52.0288 18.0663 49.9668 17.2247 48.2594 15.509C46.552 13.7932 45.7145 11.7537 45.7145 9.32556C45.7145 6.89762 46.552 4.85813 48.2594 3.14242C49.9668 1.42664 51.9966 0.584961 54.4127 0.584961C56.7968 0.584961 58.8585 1.42664 60.5659 3.14242C62.2734 4.85813 63.1111 6.89762 63.1111 9.32556C63.1111 9.68187 62.9822 9.97304 62.7568 10.1997C62.499 10.4588 62.209 10.5558 61.8869 10.5558H48.3562C48.5816 11.7537 49.1615 12.7896 50.0636 13.7283C51.2878 14.9585 52.7374 15.5413 54.4451 15.5413C55.9914 15.5413 57.3443 15.0556 58.4396 14.052C58.6653 13.955 58.9231 13.8579 59.2128 13.8579ZM60.5338 8.12788C60.3083 6.92998 59.7284 5.89405 58.8263 4.9554C57.6021 3.72513 56.1525 3.14242 54.4451 3.14242C52.7374 3.14242 51.2556 3.7575 50.0636 4.9554C49.1615 5.8617 48.5816 6.92998 48.3562 8.12788H60.5338Z" fill="#233987"/>
<path d="M54.4449 18.552C51.9321 18.552 49.7415 17.6455 47.9695 15.865C46.1977 14.0845 45.2957 11.8831 45.2957 9.35807C45.2957 6.83286 46.1977 4.63154 47.9695 2.85101C49.7415 1.07051 51.9321 0.164062 54.4449 0.164062C56.9577 0.164062 59.1485 1.07051 60.9203 2.85101C62.6923 4.63154 63.5943 6.83286 63.5943 9.35807C63.5943 9.81122 63.4333 10.232 63.1109 10.5558C62.7888 10.8795 62.3701 11.0415 61.9191 11.0415H48.9359C49.1937 11.9154 49.6769 12.7249 50.3858 13.4047C51.5133 14.5377 52.8342 15.0881 54.4449 15.0881C55.8947 15.0881 57.119 14.6347 58.1497 13.7284C58.4719 13.4694 58.8264 13.3398 59.2129 13.3398C59.6639 13.3398 60.0828 13.5018 60.4049 13.8255C60.727 14.1492 60.9203 14.57 60.9203 15.0232C60.9203 15.4766 60.7592 15.8973 60.4371 16.2211C58.7296 17.8074 56.7323 18.552 54.4449 18.552ZM54.4449 1.10289C52.1899 1.10289 50.2247 1.91221 48.6138 3.53084C47.0031 5.14946 46.1977 7.09189 46.1977 9.39042C46.1977 11.6564 47.0031 13.6312 48.6138 15.2499C50.2247 16.8686 52.1575 17.6778 54.4449 17.6778C56.5068 17.6778 58.2786 16.998 59.7928 15.703C59.9217 15.5736 59.986 15.3793 59.986 15.1528C59.986 14.9261 59.9217 14.7644 59.7606 14.6024C59.5996 14.4406 59.4385 14.3757 59.2129 14.3757C59.0196 14.3757 58.8585 14.4406 58.7297 14.5377C57.5698 15.5736 56.1201 16.124 54.4449 16.124C52.6086 16.124 51.03 15.4766 49.7415 14.1816C48.7748 13.2104 48.1627 12.045 47.9052 10.7824L47.8084 10.232H61.8867C62.1123 10.232 62.2734 10.1673 62.4345 10.0055C62.5955 9.84357 62.6599 9.68181 62.6599 9.45513C62.6599 7.18895 61.8545 5.21416 60.2438 3.59559C58.6653 1.91221 56.7001 1.10289 54.4449 1.10289ZM61.0814 8.58097H47.7763L47.8728 8.03076C48.1306 6.7358 48.7427 5.60282 49.7091 4.63154C50.9979 3.33662 52.5764 2.68914 54.4127 2.68914C56.249 2.68914 57.8276 3.33662 59.1161 4.63154C60.0828 5.60282 60.6949 6.76815 60.9525 8.03076L61.0814 8.58097ZM48.9359 7.64231H59.9539C59.6961 6.76815 59.2129 5.95891 58.504 5.27908C57.3765 4.14593 56.0558 3.59559 54.4449 3.59559C52.8342 3.59559 51.5133 4.14593 50.3858 5.27908C49.6769 5.99127 49.1937 6.76815 48.9359 7.64231Z" fill="#233987"/>
<path d="M1.67501 0.649902H7.8927C9.27798 0.649902 10.4378 1.13549 11.4042 2.10669C12.3707 3.07786 12.8539 4.2433 12.8539 5.6354C12.8539 6.86544 12.4674 7.93372 11.6942 8.84023C12.0163 9.03456 12.3385 9.29338 12.6284 9.58477C13.5949 10.556 14.0781 11.7539 14.0781 13.1135C14.0781 14.5056 13.5949 15.6709 12.6284 16.6421C11.6619 17.6133 10.5022 18.0988 9.11689 18.0988H1.67501C1.32064 18.0988 1.03069 17.9694 0.805181 17.7427C0.547454 17.4839 0.450806 17.1925 0.450806 16.8688V1.88007C0.450806 1.52396 0.57967 1.23261 0.805181 1.00599C1.03069 0.747003 1.32064 0.649902 1.67501 0.649902ZM7.86046 8.12805C8.537 8.12805 9.11689 7.86901 9.60012 7.38351C10.0834 6.89779 10.3411 6.31524 10.3411 5.6354C10.3411 4.95557 10.0834 4.3728 9.60012 3.88719C9.11689 3.4016 8.537 3.14261 7.86046 3.14261H2.89921V8.12805H7.86046ZM9.11689 15.6062C9.79343 15.6062 10.3733 15.3472 10.8566 14.8617C11.3398 14.3759 11.5975 13.7934 11.5975 13.1135C11.5975 12.4337 11.3398 11.8509 10.8566 11.3654C10.3733 10.8797 9.79343 10.6207 9.11689 10.6207H2.89921V15.6062H9.11689Z" fill="#233987"/>
<path d="M9.11712 18.5519H1.67523C1.22421 18.5519 0.805399 18.3899 0.48324 18.0661C0.16108 17.7424 0 17.3216 0 16.8685V1.87969C0 1.42646 0.16108 1.00562 0.48324 0.681878C0.805399 0.35816 1.22421 0.196289 1.67523 0.196289H7.8929C9.37483 0.196289 10.6635 0.746624 11.7266 1.78257C12.7897 2.85087 13.3052 4.14578 13.3052 5.63485C13.3052 6.8004 12.983 7.83633 12.3709 8.71049C12.5642 8.87225 12.7897 9.03401 12.983 9.22834C14.0462 10.2966 14.5616 11.5916 14.5616 13.1132C14.5616 14.6023 14.0139 15.8972 12.983 16.9655C11.8877 18.0014 10.599 18.5519 9.11712 18.5519ZM1.67523 1.10274C1.44972 1.10274 1.28864 1.16749 1.12756 1.32933C0.966478 1.4912 0.902045 1.65307 0.902045 1.87969V16.8361C0.902045 17.0626 0.966478 17.2246 1.12756 17.3863C1.28864 17.5483 1.44972 17.613 1.67523 17.613H9.11712C10.3735 17.613 11.4044 17.1922 12.3065 16.2857C13.1763 15.4115 13.6274 14.3433 13.6274 13.0806C13.6274 11.8183 13.2085 10.75 12.3065 9.87582C12.0488 9.61679 11.7588 9.39032 11.4367 9.19599L10.9856 8.9046L11.34 8.4838C12.0488 7.67435 12.3709 6.70335 12.3709 5.6025C12.3709 4.34003 11.9521 3.3041 11.0501 2.39765C10.1802 1.52358 9.11712 1.07037 7.86069 1.07037H1.67523V1.10274ZM9.11712 16.059H2.44842V10.1349H9.11712C9.92251 10.1349 10.6313 10.4262 11.1789 11.0088C11.7588 11.5916 12.0488 12.2714 12.0488 13.0806C12.0488 13.8901 11.7588 14.6023 11.1789 15.1527C10.6313 15.7676 9.92251 16.059 9.11712 16.059ZM3.38267 15.1201H9.11712C9.66478 15.1201 10.148 14.926 10.5346 14.5376C10.9212 14.1491 11.1145 13.6634 11.1145 13.1132C11.1145 12.5628 10.9212 12.0771 10.5346 11.6886C10.148 11.3002 9.66478 11.1061 9.11712 11.1061H3.38267V15.1201ZM7.86069 8.58086H2.44842V2.65665H7.86069C8.66608 2.65665 9.37483 2.94799 9.92251 3.5307C10.4702 4.11343 10.7923 4.79326 10.7923 5.6025C10.7923 6.41196 10.5024 7.12414 9.92251 7.67435C9.37483 8.28947 8.66608 8.58086 7.86069 8.58086ZM3.38267 7.64199H7.8929C8.44058 7.64199 8.92381 7.44788 9.3104 7.05944C9.69699 6.67099 9.8903 6.18528 9.8903 5.63485C9.8903 5.08465 9.69699 4.59902 9.3104 4.21053C8.92381 3.82206 8.44058 3.62782 7.8929 3.62782H3.38267V7.64199Z" fill="#233987"/>
<path d="M74.2575 12.7251C76.09 12.7251 77.5757 11.2321 77.5757 9.3906C77.5757 7.54889 76.09 6.05615 74.2575 6.05615C72.4249 6.05615 70.9392 7.54889 70.9392 9.3906C70.9392 11.2321 72.4249 12.7251 74.2575 12.7251Z" fill="#233987"/>
</svg>
